<mxfile host="Electron" agent="Mozilla/5.0 (Windows NT 10.0; Win64; x64) AppleWebKit/537.36 (KHTML, like Gecko) draw.io/26.1.1 Chrome/132.0.6834.210 Electron/34.3.3 Safari/537.36" version="26.1.1">
  <diagram name="Page-1" id="V6ks3FdHEj1WXmo5Wann">
    <mxGraphModel dx="880" dy="524" grid="1" gridSize="10" guides="1" tooltips="1" connect="0" arrows="1" fold="1" page="1" pageScale="1" pageWidth="827" pageHeight="1169" math="0" shadow="0">
      <root>
        <mxCell id="0" />
        <mxCell id="1" parent="0" />
        <mxCell id="EssHy0_6V-OvfMot1U7m-1" value="" style="rounded=1;whiteSpace=wrap;html=1;fillColor=none;" parent="1" vertex="1">
          <mxGeometry x="100" y="248" width="120" height="100" as="geometry" />
        </mxCell>
        <mxCell id="EssHy0_6V-OvfMot1U7m-2" value="&lt;b&gt;crm_sales_details&lt;/b&gt;" style="rounded=1;whiteSpace=wrap;html=1;fillColor=#dae8fc;strokeColor=none;" parent="1" vertex="1">
          <mxGeometry x="100" y="238" width="120" height="30" as="geometry" />
        </mxCell>
        <mxCell id="EssHy0_6V-OvfMot1U7m-4" value="Transactional Records about sales &amp;amp; orders" style="text;html=1;align=center;verticalAlign=middle;whiteSpace=wrap;rounded=0;fontSize=11;" parent="1" vertex="1">
          <mxGeometry x="100" y="209" width="120" height="30" as="geometry" />
        </mxCell>
        <mxCell id="EssHy0_6V-OvfMot1U7m-20" style="edgeStyle=orthogonalEdgeStyle;rounded=0;orthogonalLoop=1;jettySize=auto;html=1;entryX=0;entryY=0.5;entryDx=0;entryDy=0;" parent="1" source="EssHy0_6V-OvfMot1U7m-5" target="EssHy0_6V-OvfMot1U7m-11" edge="1">
          <mxGeometry relative="1" as="geometry" />
        </mxCell>
        <mxCell id="EssHy0_6V-OvfMot1U7m-5" value="sls_cust_id" style="text;html=1;align=center;verticalAlign=middle;whiteSpace=wrap;rounded=0;strokeColor=default;" parent="1" vertex="1">
          <mxGeometry x="100" y="278" width="120" height="27" as="geometry" />
        </mxCell>
        <mxCell id="EssHy0_6V-OvfMot1U7m-21" style="edgeStyle=orthogonalEdgeStyle;rounded=0;orthogonalLoop=1;jettySize=auto;html=1;entryX=0;entryY=0.5;entryDx=0;entryDy=0;" parent="1" source="EssHy0_6V-OvfMot1U7m-6" target="EssHy0_6V-OvfMot1U7m-17" edge="1">
          <mxGeometry relative="1" as="geometry" />
        </mxCell>
        <mxCell id="EssHy0_6V-OvfMot1U7m-6" value="sls_prd_key" style="text;html=1;align=center;verticalAlign=middle;whiteSpace=wrap;rounded=0;strokeColor=default;" parent="1" vertex="1">
          <mxGeometry x="100" y="307" width="120" height="30" as="geometry" />
        </mxCell>
        <mxCell id="EssHy0_6V-OvfMot1U7m-8" value="" style="rounded=1;whiteSpace=wrap;html=1;fillColor=none;" parent="1" vertex="1">
          <mxGeometry x="304" y="148" width="120" height="100" as="geometry" />
        </mxCell>
        <mxCell id="EssHy0_6V-OvfMot1U7m-9" value="&lt;b&gt;crm_cust_info&lt;/b&gt;" style="rounded=1;whiteSpace=wrap;html=1;fillColor=#dae8fc;strokeColor=none;" parent="1" vertex="1">
          <mxGeometry x="304" y="138" width="120" height="30" as="geometry" />
        </mxCell>
        <mxCell id="EssHy0_6V-OvfMot1U7m-10" value="Customer information" style="text;html=1;align=center;verticalAlign=middle;whiteSpace=wrap;rounded=0;fontSize=11;" parent="1" vertex="1">
          <mxGeometry x="304" y="113" width="120" height="35" as="geometry" />
        </mxCell>
        <mxCell id="EssHy0_6V-OvfMot1U7m-11" value="cst_id" style="text;html=1;align=center;verticalAlign=middle;whiteSpace=wrap;rounded=0;strokeColor=default;" parent="1" vertex="1">
          <mxGeometry x="304" y="178" width="120" height="27" as="geometry" />
        </mxCell>
        <mxCell id="EssHy0_6V-OvfMot1U7m-12" value="cst_key" style="text;html=1;align=center;verticalAlign=middle;whiteSpace=wrap;rounded=0;strokeColor=#d79b00;fillColor=#ffe6cc;" parent="1" vertex="1">
          <mxGeometry x="304" y="211" width="120" height="26" as="geometry" />
        </mxCell>
        <mxCell id="EssHy0_6V-OvfMot1U7m-13" value="" style="rounded=1;whiteSpace=wrap;html=1;fillColor=none;" parent="1" vertex="1">
          <mxGeometry x="304" y="356" width="120" height="100" as="geometry" />
        </mxCell>
        <mxCell id="EssHy0_6V-OvfMot1U7m-14" value="&lt;b&gt;crm_prd_info&lt;/b&gt;" style="rounded=1;whiteSpace=wrap;html=1;fillColor=#dae8fc;strokeColor=none;" parent="1" vertex="1">
          <mxGeometry x="304" y="346" width="120" height="30" as="geometry" />
        </mxCell>
        <mxCell id="EssHy0_6V-OvfMot1U7m-15" value="Current &amp;amp; History Product information" style="text;html=1;align=center;verticalAlign=middle;whiteSpace=wrap;rounded=0;fontSize=11;" parent="1" vertex="1">
          <mxGeometry x="304" y="315" width="120" height="35" as="geometry" />
        </mxCell>
        <mxCell id="EssHy0_6V-OvfMot1U7m-16" value="prd_id" style="text;html=1;align=center;verticalAlign=middle;whiteSpace=wrap;rounded=0;strokeColor=default;" parent="1" vertex="1">
          <mxGeometry x="304" y="386" width="120" height="27" as="geometry" />
        </mxCell>
        <mxCell id="EssHy0_6V-OvfMot1U7m-17" value="prd_key" style="text;html=1;align=center;verticalAlign=middle;whiteSpace=wrap;rounded=0;strokeColor=default;" parent="1" vertex="1">
          <mxGeometry x="304" y="419" width="120" height="26" as="geometry" />
        </mxCell>
        <mxCell id="EssHy0_6V-OvfMot1U7m-26" value="" style="rounded=1;whiteSpace=wrap;html=1;fillColor=none;" parent="1" vertex="1">
          <mxGeometry x="690" y="135" width="120" height="53" as="geometry" />
        </mxCell>
        <mxCell id="EssHy0_6V-OvfMot1U7m-27" value="cust_az12" style="rounded=1;whiteSpace=wrap;html=1;fillColor=#f8cecc;strokeColor=none;fontStyle=1;" parent="1" vertex="1">
          <mxGeometry x="690" y="125" width="120" height="23" as="geometry" />
        </mxCell>
        <mxCell id="EssHy0_6V-OvfMot1U7m-28" value="Customer information(Birthdate)" style="text;html=1;align=center;verticalAlign=middle;whiteSpace=wrap;rounded=0;fontSize=11;" parent="1" vertex="1">
          <mxGeometry x="690" y="93" width="120" height="35" as="geometry" />
        </mxCell>
        <mxCell id="EssHy0_6V-OvfMot1U7m-29" value="cid" style="text;html=1;align=center;verticalAlign=middle;whiteSpace=wrap;rounded=0;strokeColor=default;" parent="1" vertex="1">
          <mxGeometry x="690" y="159" width="120" height="18" as="geometry" />
        </mxCell>
        <mxCell id="EssHy0_6V-OvfMot1U7m-42" value="" style="rounded=1;whiteSpace=wrap;html=1;fillColor=none;" parent="1" vertex="1">
          <mxGeometry x="690" y="250" width="120" height="49" as="geometry" />
        </mxCell>
        <mxCell id="EssHy0_6V-OvfMot1U7m-43" value="erp_loc_a101" style="rounded=1;whiteSpace=wrap;html=1;fillColor=#f8cecc;strokeColor=none;fontStyle=1" parent="1" vertex="1">
          <mxGeometry x="690" y="240" width="120" height="19" as="geometry" />
        </mxCell>
        <mxCell id="EssHy0_6V-OvfMot1U7m-44" value="Customer information(Country)" style="text;html=1;align=center;verticalAlign=middle;whiteSpace=wrap;rounded=0;fontSize=11;" parent="1" vertex="1">
          <mxGeometry x="690" y="209" width="120" height="35" as="geometry" />
        </mxCell>
        <mxCell id="EssHy0_6V-OvfMot1U7m-45" value="cid" style="text;html=1;align=center;verticalAlign=middle;whiteSpace=wrap;rounded=0;strokeColor=default;" parent="1" vertex="1">
          <mxGeometry x="690" y="271" width="120" height="18" as="geometry" />
        </mxCell>
        <mxCell id="EssHy0_6V-OvfMot1U7m-49" value="" style="rounded=1;whiteSpace=wrap;html=1;fillColor=none;" parent="1" vertex="1">
          <mxGeometry x="685" y="385" width="120" height="60" as="geometry" />
        </mxCell>
        <mxCell id="EssHy0_6V-OvfMot1U7m-50" value="erp_px_cat_g1v2" style="rounded=1;whiteSpace=wrap;html=1;fillColor=#f8cecc;strokeColor=none;fontStyle=1" parent="1" vertex="1">
          <mxGeometry x="685" y="375" width="120" height="20" as="geometry" />
        </mxCell>
        <mxCell id="EssHy0_6V-OvfMot1U7m-51" value="Product information&lt;div&gt;(Category / Sub-category)&lt;/div&gt;" style="text;html=1;align=center;verticalAlign=middle;whiteSpace=wrap;rounded=0;fontSize=11;" parent="1" vertex="1">
          <mxGeometry x="680" y="342" width="130" height="35" as="geometry" />
        </mxCell>
        <mxCell id="EssHy0_6V-OvfMot1U7m-52" value="id" style="text;html=1;align=center;verticalAlign=middle;whiteSpace=wrap;rounded=0;strokeColor=default;" parent="1" vertex="1">
          <mxGeometry x="685" y="409" width="120" height="23" as="geometry" />
        </mxCell>
        <mxCell id="EssHy0_6V-OvfMot1U7m-55" style="edgeStyle=orthogonalEdgeStyle;rounded=0;orthogonalLoop=1;jettySize=auto;html=1;" parent="1" source="EssHy0_6V-OvfMot1U7m-52" target="EssHy0_6V-OvfMot1U7m-17" edge="1">
          <mxGeometry relative="1" as="geometry">
            <mxPoint x="430" y="431" as="targetPoint" />
          </mxGeometry>
        </mxCell>
        <mxCell id="EssHy0_6V-OvfMot1U7m-59" style="edgeStyle=orthogonalEdgeStyle;rounded=0;orthogonalLoop=1;jettySize=auto;html=1;entryX=1;entryY=0.692;entryDx=0;entryDy=0;entryPerimeter=0;" parent="1" source="EssHy0_6V-OvfMot1U7m-45" target="EssHy0_6V-OvfMot1U7m-12" edge="1">
          <mxGeometry relative="1" as="geometry" />
        </mxCell>
        <mxCell id="EssHy0_6V-OvfMot1U7m-61" value="" style="rounded=0;whiteSpace=wrap;html=1;fillColor=none;" parent="1" vertex="1">
          <mxGeometry x="80" y="70" width="370" height="420" as="geometry" />
        </mxCell>
        <mxCell id="EssHy0_6V-OvfMot1U7m-62" value="" style="rounded=0;whiteSpace=wrap;html=1;fillColor=none;" parent="1" vertex="1">
          <mxGeometry x="510" y="70" width="350" height="420" as="geometry" />
        </mxCell>
        <mxCell id="EssHy0_6V-OvfMot1U7m-63" value="&lt;font style=&quot;font-size: 16px;&quot;&gt;&lt;b&gt;CRM&lt;/b&gt;&lt;/font&gt;" style="rounded=1;whiteSpace=wrap;html=1;fillColor=#dae8fc;strokeColor=#6c8ebf;" parent="1" vertex="1">
          <mxGeometry x="205" y="50" width="120" height="40" as="geometry" />
        </mxCell>
        <mxCell id="EssHy0_6V-OvfMot1U7m-64" value="&lt;b&gt;&lt;font style=&quot;font-size: 16px;&quot;&gt;ERP&lt;/font&gt;&lt;/b&gt;" style="rounded=1;whiteSpace=wrap;html=1;fillColor=#f8cecc;strokeColor=#b85450;" parent="1" vertex="1">
          <mxGeometry x="625" y="50" width="120" height="40" as="geometry" />
        </mxCell>
        <mxCell id="EssHy0_6V-OvfMot1U7m-65" value="Integration Model (How tables are related)" style="text;html=1;align=center;verticalAlign=middle;whiteSpace=wrap;rounded=0;strokeWidth=1;fontSize=17;fontStyle=1;fillColor=#f5f5f5;fontColor=#333333;strokeColor=none;" parent="1" vertex="1">
          <mxGeometry x="80" y="12" width="780" height="30" as="geometry" />
        </mxCell>
        <mxCell id="xsIwEpw76I5qrLl95wHh-1" value="&lt;b&gt;SALES&lt;/b&gt;" style="text;html=1;strokeColor=#9673a6;fillColor=#e1d5e7;align=center;verticalAlign=middle;whiteSpace=wrap;overflow=hidden;" parent="1" vertex="1">
          <mxGeometry x="100" y="338" width="120" height="20" as="geometry" />
        </mxCell>
        <mxCell id="xsIwEpw76I5qrLl95wHh-2" value="&lt;b&gt;CUSTOMER&lt;/b&gt;" style="text;html=1;strokeColor=#82b366;fillColor=#d5e8d4;align=center;verticalAlign=middle;whiteSpace=wrap;overflow=hidden;" parent="1" vertex="1">
          <mxGeometry x="304" y="238" width="120" height="20" as="geometry" />
        </mxCell>
        <mxCell id="xsIwEpw76I5qrLl95wHh-3" value="&lt;b&gt;PRODUCT&lt;/b&gt;" style="text;html=1;strokeColor=#d6b656;fillColor=#fff2cc;align=center;verticalAlign=middle;whiteSpace=wrap;overflow=hidden;" parent="1" vertex="1">
          <mxGeometry x="304" y="446" width="120" height="20" as="geometry" />
        </mxCell>
        <mxCell id="xsIwEpw76I5qrLl95wHh-5" value="&lt;b&gt;CUSTOMER&lt;/b&gt;" style="text;html=1;strokeColor=#82b366;fillColor=#d5e8d4;align=center;verticalAlign=middle;whiteSpace=wrap;overflow=hidden;" parent="1" vertex="1">
          <mxGeometry x="690" y="177.5" width="120" height="20" as="geometry" />
        </mxCell>
        <mxCell id="xsIwEpw76I5qrLl95wHh-8" value="&lt;b&gt;CUSTOMER&lt;/b&gt;" style="text;html=1;strokeColor=#82b366;fillColor=#d5e8d4;align=center;verticalAlign=middle;whiteSpace=wrap;overflow=hidden;" parent="1" vertex="1">
          <mxGeometry x="690" y="290" width="120" height="20" as="geometry" />
        </mxCell>
        <mxCell id="xsIwEpw76I5qrLl95wHh-9" value="&lt;b&gt;PRODUCT&lt;/b&gt;" style="text;html=1;strokeColor=#d6b656;fillColor=#fff2cc;align=center;verticalAlign=middle;whiteSpace=wrap;overflow=hidden;" parent="1" vertex="1">
          <mxGeometry x="685" y="433" width="120" height="20" as="geometry" />
        </mxCell>
        <mxCell id="xsIwEpw76I5qrLl95wHh-16" style="edgeStyle=orthogonalEdgeStyle;rounded=0;orthogonalLoop=1;jettySize=auto;html=1;entryX=0.919;entryY=0.357;entryDx=0;entryDy=0;entryPerimeter=0;exitX=0.514;exitY=0.238;exitDx=0;exitDy=0;exitPerimeter=0;" parent="1" source="EssHy0_6V-OvfMot1U7m-62" edge="1">
          <mxGeometry relative="1" as="geometry">
            <mxPoint x="680" y="168" as="sourcePoint" />
            <mxPoint x="424.03" y="219.94000000000005" as="targetPoint" />
            <Array as="points">
              <mxPoint x="560" y="170" />
              <mxPoint x="560" y="220" />
            </Array>
          </mxGeometry>
        </mxCell>
      </root>
    </mxGraphModel>
  </diagram>
</mxfile>
